<?xml version="1.0" encoding="UTF-8" standalone="no"?>
<svg
   viewBox="0 0 24 24"
   width="24"
   height="24"
   version="1.1"
   id="svg6"
   sodipodi:docname="calendar.svg"
   inkscape:version="1.2.2 (b0a8486541, 2022-12-01)"
   xmlns:inkscape="http://www.inkscape.org/namespaces/inkscape"
   xmlns:sodipodi="http://sodipodi.sourceforge.net/DTD/sodipodi-0.dtd"
   xmlns="http://www.w3.org/2000/svg"
   xmlns:svg="http://www.w3.org/2000/svg">
  <defs
     id="defs10" />
  <sodipodi:namedview
     id="namedview8"
     pagecolor="#ffffff"
     bordercolor="#666666"
     borderopacity="1.0"
     inkscape:showpageshadow="2"
     inkscape:pageopacity="0.0"
     inkscape:pagecheckerboard="0"
     inkscape:deskcolor="#d1d1d1"
     showgrid="false"
     inkscape:zoom="25.302774"
     inkscape:cx="13.160612"
     inkscape:cy="15.531894"
     inkscape:window-width="1920"
     inkscape:window-height="1028"
     inkscape:window-x="0"
     inkscape:window-y="0"
     inkscape:window-maximized="1"
     inkscape:current-layer="svg6" />
  <path
     fill="none"
     d="M 0,0 H 24 V 24 H 0 Z"
     id="path2" />
  <path
     d="m 17,3 h 4 a 1,1 0 0 1 1,1 v 16 a 1,1 0 0 1 -1,1 H 3 A 1,1 0 0 1 2,20 V 4 A 1,1 0 0 1 3,3 H 7 V 1 h 2 v 2 h 6 V 1 h 2 z m 3,6 V 5 H 17 V 7 H 15 V 5 H 9 V 7 H 7 V 5 H 4 v 4 z m 0,2 H 4 v 8 H 20 Z M 6,13 h 5 v 4 H 6 Z"
     id="path4"
     style="fill-opacity:1;fill:#ffffff" />
</svg>
