<?xml version="1.0" encoding="UTF-8" standalone="no"?>
<svg
   viewBox="0 0 30 30"
   width="30"
   height="30"
   version="1.1"
   id="svg6"
   sodipodi:docname="facebook.svg"
   inkscape:version="1.2.2 (b0a8486541, 2022-12-01)"
   xmlns:inkscape="http://www.inkscape.org/namespaces/inkscape"
   xmlns:sodipodi="http://sodipodi.sourceforge.net/DTD/sodipodi-0.dtd"
   xmlns="http://www.w3.org/2000/svg"
   xmlns:svg="http://www.w3.org/2000/svg">
  <defs
     id="defs10" />
  <sodipodi:namedview
     id="namedview8"
     pagecolor="#ffffff"
     bordercolor="#666666"
     borderopacity="1.0"
     inkscape:showpageshadow="2"
     inkscape:pageopacity="0.0"
     inkscape:pagecheckerboard="0"
     inkscape:deskcolor="#d1d1d1"
     showgrid="false"
     inkscape:zoom="22.627417"
     inkscape:cx="7.9991454"
     inkscape:cy="12.727922"
     inkscape:window-width="3440"
     inkscape:window-height="1388"
     inkscape:window-x="0"
     inkscape:window-y="0"
     inkscape:window-maximized="1"
     inkscape:current-layer="svg6" />
  <path
     fill="none"
     d="M 0,0 H 24 V 24 H 0 Z"
     id="path2" />
  <path
     d="m 14.984438,0.01384416 c -8.2699146,0 -14.97359241,6.70367774 -14.97359241,14.97359484 0,7.47332 5.47584321,13.667894 12.63471741,14.792412 V 19.314807 H 8.8422709 v -4.327368 h 3.8032921 v -3.298683 c 0,-3.7523837 2.234061,-5.8247289 5.655526,-5.8247289 1.638111,0 3.35109,0.291985 3.35109,0.291985 v 3.6835035 h -1.886672 c -1.861218,0 -2.440697,1.1544654 -2.440697,2.3388774 v 2.809046 h 4.152178 l -0.66333,4.327368 H 17.32481 v 10.465044 c 7.157377,-1.123019 12.633222,-7.32059 12.633222,-14.792412 0,-8.2699171 -6.703678,-14.97359484 -14.973594,-14.97359484 z"
     id="path4"
     style="stroke-width:1.49736;fill:#ffffff;fill-opacity:1" />
</svg>
