<?xml version="1.0" encoding="UTF-8" standalone="no"?>
<svg
   viewBox="0 0 24 24"
   fill="currentColor"
   version="1.1"
   id="svg1"
   sodipodi:docname="information.svg"
   inkscape:version="1.4 (86a8ad7, 2024-10-11)"
   xmlns:inkscape="http://www.inkscape.org/namespaces/inkscape"
   xmlns:sodipodi="http://sodipodi.sourceforge.net/DTD/sodipodi-0.dtd"
   xmlns="http://www.w3.org/2000/svg"
   xmlns:svg="http://www.w3.org/2000/svg">
  <defs
     id="defs1" />
  <sodipodi:namedview
     id="namedview1"
     pagecolor="#ffffff"
     bordercolor="#000000"
     borderopacity="0.25"
     inkscape:showpageshadow="2"
     inkscape:pageopacity="0.0"
     inkscape:pagecheckerboard="0"
     inkscape:deskcolor="#d1d1d1"
     inkscape:zoom="32"
     inkscape:cx="8.28125"
     inkscape:cy="14.984375"
     inkscape:window-width="1920"
     inkscape:window-height="1111"
     inkscape:window-x="-9"
     inkscape:window-y="-9"
     inkscape:window-maximized="1"
     inkscape:current-layer="svg1" />
  <path
     d="M 12,24 C 6.47715,24 2,19.5228 2,14 2,8.47715 6.47715,4 12,4 c 5.5228,0 10,4.47715 10,10 0,5.5228 -4.4772,10 -10,10 z m 0,-2 c 4.4183,0 8,-3.5817 8,-8 0,-4.41828 -3.5817,-8 -8,-8 -4.41828,0 -8,3.58172 -8,8 0,4.4183 3.58172,8 8,8 z M 11,9 h 2 v 2 h -2 z m 0,4 h 2 v 6 h -2 z"
     id="path1"
     style="fill:#808080;fill-opacity:1" />
</svg>
