<?xml version="1.0" encoding="UTF-8" standalone="no"?>
<svg
   viewBox="0 0 30 30"
   width="30"
   height="30"
   version="1.1"
   id="svg6"
   sodipodi:docname="instagram.svg"
   inkscape:version="1.2.2 (b0a8486541, 2022-12-01)"
   xmlns:inkscape="http://www.inkscape.org/namespaces/inkscape"
   xmlns:sodipodi="http://sodipodi.sourceforge.net/DTD/sodipodi-0.dtd"
   xmlns="http://www.w3.org/2000/svg"
   xmlns:svg="http://www.w3.org/2000/svg">
  <defs
     id="defs10" />
  <sodipodi:namedview
     id="namedview8"
     pagecolor="#ffffff"
     bordercolor="#666666"
     borderopacity="1.0"
     inkscape:showpageshadow="2"
     inkscape:pageopacity="0.0"
     inkscape:pagecheckerboard="0"
     inkscape:deskcolor="#d1d1d1"
     showgrid="false"
     showguides="true"
     inkscape:zoom="39.333333"
     inkscape:cx="17.923729"
     inkscape:cy="13.372881"
     inkscape:window-width="3440"
     inkscape:window-height="1388"
     inkscape:window-x="0"
     inkscape:window-y="0"
     inkscape:window-maximized="1"
     inkscape:current-layer="svg6">
    <sodipodi:guide
       position="15,9.8644068"
       orientation="-1,0"
       id="guide6949"
       inkscape:locked="false"
       inkscape:label=""
       inkscape:color="rgb(0,134,229)" />
    <sodipodi:guide
       position="-21.686441,15"
       orientation="0,1"
       id="guide7677"
       inkscape:locked="false"
       inkscape:label=""
       inkscape:color="rgb(0,134,229)" />
  </sodipodi:namedview>
  <path
     id="circle11322"
     style="fill:#ffffff;stroke:none;stroke-width:156.825;stroke-linecap:round;stroke-linejoin:round;stroke-miterlimit:10;fill-opacity:1"
     d="M 14.994141 0.044921875 A 14.981155 14.981155 0 0 0 0.013671875 15.027344 A 14.981155 14.981155 0 0 0 14.994141 30.007812 A 14.981155 14.981155 0 0 0 29.974609 15.027344 A 14.981155 14.981155 0 0 0 14.994141 0.044921875 z M 14.957031 4.984375 C 17.674027 4.9843749 18.01408 4.9949219 19.080078 5.0449219 C 20.145076 5.0949217 20.869813 5.2617662 21.507812 5.5097656 C 22.167811 5.7637652 22.723298 6.1090637 23.279297 6.6640625 A 4.908 4.908 0 0 1 24.431641 8.4355469 C 24.67864 9.0725456 24.846484 9.7982841 24.896484 10.863281 C 24.943484 11.929279 24.957031 12.26738 24.957031 14.984375 C 24.957031 17.701369 24.946484 18.041424 24.896484 19.107422 C 24.846484 20.172419 24.67864 20.897158 24.431641 21.535156 A 4.883 4.883 0 0 1 23.279297 23.306641 A 4.915 4.915 0 0 1 21.507812 24.460938 C 20.870813 24.707937 20.145076 24.875781 19.080078 24.925781 C 18.01408 24.972781 17.674027 24.984375 14.957031 24.984375 C 12.240037 24.984375 11.901935 24.975781 10.835938 24.925781 C 9.7709395 24.875781 9.0462018 24.707937 8.4082031 24.460938 A 4.89 4.89 0 0 1 6.6347656 23.306641 A 4.904 4.904 0 0 1 5.4824219 21.535156 C 5.2344224 20.898158 5.0675781 20.172419 5.0175781 19.107422 C 4.9705782 18.041424 4.9570312 17.701369 4.9570312 14.984375 C 4.9570312 12.26738 4.9675782 11.929279 5.0175781 10.863281 C 5.067578 9.7972841 5.2344224 9.0735456 5.4824219 8.4355469 A 4.88 4.88 0 0 1 6.6347656 6.6640625 A 4.897 4.897 0 0 1 8.4082031 5.5097656 C 9.0462018 5.2617662 9.7699395 5.0949218 10.835938 5.0449219 C 11.901935 4.9979219 12.240037 4.984375 14.957031 4.984375 z M 14.957031 6.984375 C 12.483037 6.9843748 12.078732 6.9919688 10.927734 7.0429688 C 10.143735 7.0799686 9.6188584 7.1850004 9.1308594 7.375 C 8.6968603 7.5429997 8.3837806 7.7441257 8.0507812 8.078125 A 2.89 2.89 0 0 0 7.3457031 9.1582031 C 7.1557035 9.648202 7.051625 10.174033 7.015625 10.957031 C 6.9636211 12.061028 6.9570312 12.44538 6.9570312 14.984375 C 6.9570313 17.45837 6.9646251 17.862674 7.015625 19.013672 C 7.052625 19.79667 7.1567035 20.323548 7.3457031 20.810547 C 7.5157028 21.245546 7.7168288 21.558625 8.0488281 21.890625 C 8.3858274 22.226624 8.6989071 22.42775 9.1289062 22.59375 C 9.6229053 22.784749 10.147735 22.891734 10.927734 22.927734 C 12.031732 22.979774 12.418037 22.984375 14.957031 22.984375 C 17.431027 22.984375 17.835331 22.978734 18.986328 22.927734 C 19.768327 22.890734 20.295205 22.784703 20.783203 22.595703 C 21.216203 22.426703 21.531283 22.226531 21.863281 21.894531 C 22.200281 21.557532 22.400406 21.244452 22.566406 20.814453 C 22.756405 20.321454 22.862438 19.79367 22.898438 19.013672 C 22.950427 17.909674 22.957031 17.523369 22.957031 14.984375 C 22.957031 12.510379 22.949437 12.108028 22.898438 10.957031 C 22.861438 10.175033 22.756405 9.6462018 22.566406 9.1582031 A 2.911 2.911 0 0 0 21.863281 8.078125 A 2.884 2.884 0 0 0 20.785156 7.375 C 20.295157 7.1850004 19.768327 7.0789687 18.986328 7.0429688 C 17.88233 6.9909648 17.496027 6.984375 14.957031 6.984375 z M 20.207031 8.484375 A 1.25 1.25 0 0 1 21.457031 9.734375 A 1.25 1.25 0 0 1 18.957031 9.734375 A 1.25 1.25 0 0 1 20.207031 8.484375 z M 14.957031 9.984375 A 5.0000005 5.0000005 0 1 1 14.957031 19.984375 A 5.0000005 5.0000005 0 0 1 14.957031 9.984375 z M 14.957031 11.984375 A 3 3 0 0 0 14.957031 17.984375 A 3 3 0 0 0 14.957031 11.984375 z " />
  <path
     fill="none"
     d="M 0,0 H 24 V 24 H 0 Z"
     id="path2" />
</svg>
